# xmcd
#
# Track frame offsets: 
#        150
#        12886
#        27059
#        36413
#        47529
#        62512
#        77837
#        88671
#        107320
#        120438
#        136505
#        147013
#        158382
#        171088
#        183582
#        197341
#        210712
#        229682
#        234565
#        252468
#        263086
#        280682
#        293746
#        305366
#        314692
#        328176
#        335792
#
# Disc length: 4615 seconds
#
# Revision: 0
# Processed by: cddbd v1.5.2PL0 Copyright (c) Steve Scherf et al.
# Submitted via: ExactAudioCopy v0.99pb4
#
DISCID=6c12051b
DTITLE=Various Artist - There's A Dream I've Been Saving  [CD1]
DYEAR=1900
DGENRE=Country
TTITLE0=Lee Hazlewood - Pray Them Bars Away
TTITLE1=Lee Hazlewood - Leather And Lace
TTITLE2=Lee Hazlewood - Forget Marie
TTITLE3=Lee Hazlewood - Cold Hard Times
TTITLE4=Lee Hazlewood - The Night Before
TTITLE5=Lee Hazlewood - Hey Cowboy
TTITLE6=Lee Hazlewood - No Train To Stockholm
TTITLE7=Lee Hazlewood - For A Day Like Today
TTITLE8=Lee Hazlewood - Easy And Me
TTITLE9=Lee Hazlewood - What's More I Don't Need Her
TTITLE10=Lee Hazlewood - Vem Kan Segla
TTITLE11=Lee Hazlewood - Trouble Maker
TTITLE12=Lee Hazlewood - Califia
TTITLE13=Lee Hazlewood - Alone
TTITLE14=Lee Hazlewood - I'll Never Fall In Love Again
TTITLE15=Lee Hazlewood - No Body Like You
TTITLE16=Lee Hazlewood - First Street Blues
TTITLE17=Lee Hazlewood - I'm Glad I Never...
TTITLE18=Lee Hazlewood - If It's Monday Morning
TTITLE19=Lee Hazlewood - L.A. Lady
TTITLE20=Lee Hazlewood - Won't You Tell Your Dreams?
TTITLE21=Lee Hazlewood - I'll Live Yesterdays
TTITLE22=Lee Hazlewood - Little Miss Sunshine
TTITLE23=Lee Hazlewood - Stoned Lost Child
TTITLE24=Lee Hazlewood - Come On Home To Me
TTITLE25=Lee Hazlewood - Must Have Been Something I Loved
TTITLE26=Lee Hazlewood - I'd Rather Be Your Enemy
EXTD=
EXTT0=
EXTT1=
EXTT2=
EXTT3=
EXTT4=
EXTT5=
EXTT6=
EXTT7=
EXTT8=
EXTT9=
EXTT10=
EXTT11=
EXTT12=
EXTT13=
EXTT14=
EXTT15=
EXTT16=
EXTT17=
EXTT18=
EXTT19=
EXTT20=
EXTT21=
EXTT22=
EXTT23=
EXTT24=
EXTT25=
EXTT26=
PLAYORDER=
